<svg width="25" height="25" viewBox="0 0 25 25" fill="black" xmlns="http://www.w3.org/2000/svg">
<path d="M11.629 12.1701L12.8963 10.9044C12.4393 10.6647 11.9248 10.5564 11.4098 10.5913C10.8949 10.6262 10.3998 10.8031 9.97943 11.1022C9.55912 11.4013 9.23005 11.811 9.02886 12.2856C8.82768 12.7603 8.76222 13.2814 8.83975 13.791C8.91732 14.3006 9.13486 14.7787 9.46818 15.1723C9.80149 15.5658 10.2375 15.8594 10.7279 16.0202C11.2183 16.1811 11.7436 16.203 12.2457 16.0836C12.7478 15.9641 13.2068 15.7079 13.5719 15.3436C14.0503 14.864 14.3327 14.2237 14.3639 13.5474L15.9527 11.9607C16.4559 13.5474 16.1018 15.3436 14.8345 16.6046C13.0407 18.4007 10.1288 18.4007 8.36293 16.6046C6.5971 14.8084 6.56915 11.9048 8.36293 10.1413C9.9517 8.55451 12.4211 8.37769 14.2195 9.61079L15.3936 8.43353C12.9522 6.5862 9.45317 6.75837 7.21677 8.96399C4.80331 11.3744 4.80331 15.3436 7.21677 17.7539C9.63022 20.1643 13.5998 20.1596 16.0133 17.7539C16.9216 16.8484 17.5278 15.6847 17.7488 14.422C17.9698 13.1593 17.7949 11.8593 17.248 10.6996L18.5712 9.37813C20.337 12.4306 19.899 16.4278 17.2806 19.0429C14.1589 22.1605 9.06646 22.1605 5.92151 19.0429C2.77657 15.9252 2.79987 10.8439 5.92151 7.70297C8.86146 4.76214 13.5113 4.58532 16.6609 7.14459L17.7185 6.08365L17.5741 5.32053L20.1599 2.73334L20.4861 4.46899L22.2193 4.79471L19.6335 7.37725L18.8694 7.233L17.8071 8.28928L16.5118 9.58287L15.3377 10.7555L14.0425 12.0491L12.7752 13.3147C12.7774 13.4775 12.7473 13.639 12.6865 13.79C12.6256 13.9409 12.5354 14.0783 12.4211 14.1942C12.3108 14.3133 12.1775 14.409 12.0294 14.4754C11.8812 14.5419 11.7211 14.5778 11.5587 14.581C11.3962 14.5842 11.2348 14.5546 11.0841 14.494C10.9334 14.4333 10.7966 14.343 10.6817 14.2283C10.5669 14.1135 10.4763 13.9768 10.4157 13.8263C10.355 13.6758 10.3253 13.5147 10.3285 13.3524C10.3317 13.1902 10.3676 13.0303 10.4342 12.8823C10.5007 12.7343 10.5965 12.6013 10.7158 12.4911C10.9814 12.2585 11.3029 12.1701 11.629 12.1701Z" fill="black"/>
</svg>
